<?xml version="1.0" encoding="utf-8"?>
<!-- Generator: Adobe Illustrator 22.1.0, SVG Export Plug-In . SVG Version: 6.00 Build 0)  -->
<svg version="1.1" id="Layer_1" xmlns="http://www.w3.org/2000/svg" xmlns:xlink="http://www.w3.org/1999/xlink" x="0px" y="0px"
	 viewBox="0 0 228 87" style="enable-background:new 0 0 228 87;" xml:space="preserve">
<style type="text/css">
	.st0{filter:url(#editing-extrusion);}
	.st1{fill:#CCCCCC;}
</style>
<filter  height="300%" id="editing-extrusion" width="300%" x="-100%" y="-100%">
	<feFlood  flood-color="#444" result="color1"></feFlood>
	
		<feConvolveMatrix  divisor="1" edgeMode="duplicate" in="SourceAlpha" kernelMatrix="1 0 0 0 0 0 0 0 0 1 0 0 0 0 0 0 0 0 1 0 0 0 0 0 0 0 0 1 0 0 0 0 0 0 0 0 1 0 0 0 0 0 0 0 0 1 0 0 0 0 0 0 0 0 1 0 0 0 0 0 0 0 0 1" order="8,8" result="extrude">
		</feConvolveMatrix>
	<feComposite  in="color1" in2="extrude" operator="in" result="comp-extrude"></feComposite>
	<feOffset  dx="4" dy="4" in="comp-extrude" result="offset-extrude"></feOffset>
	<feMerge>
		<feMergeNode  in="offset-extrude"></feMergeNode>
		<feMergeNode  in="SourceGraphic"></feMergeNode>
	</feMerge>
</filter>
<g class="st0">
	<g transform="translate(141.53093600273132, 112.76000213623047)">
		<path class="st1" d="M-95.9-50.8l-0.9,0.3l0,0c-4.2-0.6-8.4-0.9-12.6-0.9l0,0l0,0c-4.2,0-8.5-0.3-12.7-0.6l0,0l0,0
			c4,0.5,7.9,0.8,11.8,1.1l0,0l0,0c3.9,0.2,7.9,0.5,11.9,0.9l0,0l0,0c-1,0.3-2.1,0.4-3.1,0.5l0,0l0,0c-1,0.1-2.1,0.1-3.2,0.1l0,0
			l0,0c-2.8,0-5.5-0.1-8.1-0.3l0,0l0,0c-2.6-0.2-5.3-0.4-8.1-0.7l0,0l-0.6-0.8l0,0c-2.2-0.1-4.5-0.3-6.9-0.7l0,0l0,0
			c-2.5-0.4-4.7-1-6.8-1.9l0,0l0,0c-0.4-0.9-0.7-1.7-1.1-2.6l0,0l0,0c-0.3-0.9-0.7-1.7-1.1-2.5l0,0l0,0c0.5-1.1,1-2,1.7-2.8l0,0l0,0
			c0.7-0.8,1.4-1.5,2.2-2.2l0,0l0,0c2.3-2,4.5-4.1,6.5-6.3l0,0l0,0c2-2.3,3.9-4.6,5.8-6.9l0,0l0,0c1.9-2.4,3.8-4.7,5.7-7.1l0,0l0,0
			c1.9-2.4,3.9-4.6,6-6.8l0,0h-14.4l0,0c-2.7,0-5.3,0.1-7.9,0.4l0,0v-0.1l0,0c0-0.3,0-0.5-0.1-0.8l0,0l0,0c-0.1-0.3-0.1-0.5-0.1-0.5
			l0,0l0,0c0-0.3,0.2-0.5,0.7-0.7l0,0l0,0c0.5-0.2,1-0.3,1.7-0.4l0,0l0,0c0.6-0.1,1.2-0.1,1.8-0.2l0,0l0,0c0.6,0,1,0,1.1,0l0,0V-94
			l0,0c-0.3,0-0.8,0-1.7-0.1l0,0l0,0c-0.9-0.1-1.8-0.2-2.8-0.3l0,0l0,0c-1-0.1-1.9-0.4-2.6-0.6l0,0l0,0c-0.8-0.3-1.2-0.6-1.2-1l0,0
			l0,0c0-0.3,0.4-0.7,1.3-0.9l0,0l0,0c0.9-0.3,2-0.5,3.5-0.8l0,0l0,0c1.5-0.2,3.1-0.4,4.9-0.6l0,0l0,0c1.8-0.2,3.7-0.3,5.5-0.4l0,0
			l0,0c1.9-0.1,3.7-0.2,5.5-0.3l0,0l0,0c1.8-0.1,3.3-0.1,4.7-0.1l0,0l0,0c0.8,0,1.7,0.1,2.5,0.2l0,0l0,0c0.9,0.2,1.7,0.3,2.6,0.5
			l0,0l0,0c0.9,0.2,1.7,0.3,2.6,0.5l0,0l0,0c0.9,0.2,1.6,0.2,2.4,0.2l0,0l0,0c0.3,0.9,0.5,2,0.7,3.3l0,0l0,0
			c0.2,1.2,0.5,2.5,0.7,3.8l0,0l0,0c-1.1,0.6-2.4,1.6-4,3.2l0,0l0,0c-1.5,1.6-3.2,3.4-4.9,5.5l0,0l0,0c-1.8,2.1-3.6,4.3-5.4,6.7l0,0
			l0,0c-1.9,2.4-3.7,4.7-5.5,6.8l0,0l0,0c-1.8,2.2-3.5,4.1-5.1,5.8l0,0l0,0c-1.6,1.7-3,2.9-4.2,3.6l0,0l0,0c2.3,0.5,4.6,0.8,6.9,1.1
			l0,0l0,0c2.3,0.3,4.6,0.5,6.9,0.7l0,0l0,0c0.6,0,1.4,0.1,2.4,0.1l0,0l0,0c1,0,2,0,3.1,0l0,0l0,0c1.1,0,2.2,0,3.3,0l0,0l0,0
			c1.1,0,2.1,0.1,3,0.2l0,0l0,0c0.9,0.1,1.6,0.2,2.1,0.3l0,0l0,0c0.6,0.2,0.8,0.4,0.8,0.6l0,0l-0.1,0.3l0,0
			c-3.4-0.1-6.8-0.2-10.2-0.2l0,0l0,0c-3.4-0.1-6.8-0.3-10.2-0.6l0,0l0,0c3.3,0.4,6.7,0.7,10.1,0.8l0,0l0,0
			c3.4,0.1,6.7,0.2,10.1,0.4l0,0l-0.2,1.2l0,0c0.1,0,0.2,0,0.3,0l0,0l0,0c0.1,0,0.2,0,0.4,0l0,0l0,0c0.4,0,1,0,1.6,0.1l0,0l0,0
			c0.6,0.1,1.2,0.2,1.8,0.3l0,0l0,0c0.6,0.1,1,0.3,1.4,0.6l0,0l0,0c0.4,0.2,0.6,0.5,0.6,0.8l0,0l0,0c0,0.3-0.2,0.5-0.5,0.7l0,0l0,0
			c-0.3,0.2-0.7,0.4-1.1,0.5l0,0l0,0C-95-51-95.4-50.9-95.9-50.8L-95.9-50.8z M-137.1-59.2l0.2,0.6l0.3-0.8l0,0
			c0.2-0.6,0.6-1.2,1.2-1.8l0,0l0,0c0.6-0.6,1.1-1.1,1.6-1.5l0,0l0,0c3.8-3.2,7.3-6.7,10.5-10.4l0,0l0,0c3.3-3.7,6.4-7.5,9.3-11.5
			l0,0l-0.8-0.3l0,0c-2.1,2.6-4.2,5.2-6.2,7.8l0,0l0,0c-2,2.6-4.2,5.1-6.4,7.6l0,0l0,0c-0.8,0.9-1.6,1.7-2.5,2.5l0,0l0,0
			c-0.9,0.8-1.7,1.6-2.5,2.4l0,0l0,0c-0.8,0.8-1.6,1.7-2.4,2.5l0,0l0,0C-135.7-61.1-136.4-60.1-137.1-59.2L-137.1-59.2z M-135-54.8
			l0.2,0.3l0,0c0.6,0.3,1.3,0.6,2,0.9l0,0l0,0c0.7,0.2,1.5,0.4,2.3,0.5l0,0l0,0c0.8,0.1,1.6,0.2,2.4,0.3l0,0l0,0
			c0.5,0,1,0.1,1.6,0.1l0,0l0,0c-1.3-0.2-2.6-0.5-3.9-1l0,0l0,0c-1.5-0.5-3-0.9-4.5-1.2l0,0l-1.2-3.1l0,0c0.1-0.5,0.5-1.2,1.3-2.1
			l0,0l0,0c0.8-0.9,1.7-1.8,2.7-2.8l0,0l0,0c1-1,2-1.9,2.9-2.9l0,0l0,0c1-0.9,1.7-1.7,2.2-2.3l0,0l0,0c-0.4,0.5-1.1,1.1-2.1,2l0,0
			l0,0c-1,0.9-2,1.8-3.1,2.7l0,0l0,0c-1,1-2,1.9-2.8,2.8l0,0l0,0c-0.8,0.9-1.2,1.5-1.2,2l0,0l-0.4,0.4L-135-54.8z M-128.2-58.1
			l-0.3,0.3l0,0c1.4,0.3,2.7,0.6,4.1,0.8l0,0l0,0c1.3,0.2,2.7,0.4,4,0.5l0,0l0,0c-1.3-0.2-2.6-0.4-3.8-0.7l0,0l0,0
			C-125.6-57.5-126.9-57.8-128.2-58.1L-128.2-58.1z M-131.5-52.3L-131.5-52.3L-131.5-52.3c-1.2-0.3-2.5-0.6-3.7-1l0,0l0.3-0.3l0,0
			C-133.8-53-132.6-52.6-131.5-52.3L-131.5-52.3L-131.5-52.3c1.1,0.2,2.2,0.4,3.3,0.7l0,0l0,0C-129.3-51.8-130.4-52.1-131.5-52.3z
			 M-87.5-59L-87.5-59L-87.5-59c0.2-1.2,0.3-2.6,0.5-4.2l0,0l0,0c0.2-1.6,0.3-3.2,0.4-4.8l0,0l0,0c0.1-1.6,0.3-3.2,0.4-4.8l0,0l0,0
			c0.1-1.6,0.3-2.9,0.4-4.1l0,0l0,0c-0.2,1.1-0.4,2.5-0.6,4l0,0l0,0c-0.2,1.5-0.3,3-0.5,4.6l0,0l0,0c-0.2,1.6-0.3,3.2-0.5,4.7l0,0
			l0,0c-0.2,1.6-0.3,3-0.5,4.2l0,0l0,0c-0.6-0.4-1-1-1-1.7l0,0l0,0c0-0.9,0-1.6,0.1-2.1l0,0l0,0c0-0.6,0.1-1.3,0.2-2l0,0l0.7-0.6
			l0,0c0-0.2-0.1-0.4-0.1-0.6l0,0v-0.6l0,0c0-1,0.1-2.1,0.3-3.4l0,0l0,0c0.2-1.3,0.5-2.5,0.7-3.8l0,0l0,0c0.3-1.3,0.5-2.6,0.7-3.8
			l0,0l0,0c0.2-1.2,0.3-2.3,0.3-3.2l0,0l-0.8-0.2l0,0c-0.1,1-0.2,2.2-0.4,3.5l0,0l0,0c-0.2,1.3-0.3,2.6-0.5,4l0,0l0,0
			c-0.2,1.4-0.4,2.8-0.5,4.1l0,0l0,0c-0.1,0.7-0.2,1.4-0.3,2l0,0l0,0c0.1-1.2,0.2-2.5,0.3-3.8l0,0l0,0c0.2-2,0.4-3.9,0.7-5.8l0,0
			l0,0c0.2-1.9,0.5-3.8,0.7-5.7l0,0l0,0c0.2-1.9,0.4-3.6,0.6-5.2l0,0l0,0c0-0.6,0.2-1.3,0.5-2.1l0,0l0,0c0.3-0.7,0.5-1.5,0.7-2.3
			l0,0l0,0c0.3,0.1,0.5,0.1,0.6,0.1l0,0h0.4l0,0c0.4,0,0.7,0.1,0.8,0.3l0,0l0,0c0.1,0.2,0.2,0.5,0.2,0.8l0,0v0.3l0.6,0.2l0,0
			c0.3-0.6,0.8-1.2,1.2-1.5l0,0l0,0c0.5-0.4,0.9-0.6,1.4-0.6l0,0l0,0c1,0,1.5,1.1,1.5,3.3l0,0l0,0c0,1.2-0.1,2.4-0.4,3.7l0,0l0,0
			c-0.2,1.3-0.3,2.6-0.3,3.8l0,0v0.8l0,0c0,1.4-0.1,2.8-0.4,4.4l0,0l0,0c-0.3,1.6-0.6,3.2-1,4.9l0,0l0,0c-0.4,1.6-0.7,3.2-1,4.8l0,0
			l0,0c-0.3,1.5-0.4,2.9-0.4,4.2l0,0l0,0c0,0.3,0,0.6,0.1,1l0,0l0,0c0,0.3,0.1,0.7,0.1,1l0,0l0,0c0,0.6-0.1,1-0.3,1.2l0,0l0,0
			c-0.2,0.1-0.5,0.2-0.9,0.2l0,0l0,0c0-0.6,0-1.2-0.1-2l0,0l0,0c0-0.8-0.1-1.5-0.1-2.2l0,0l0,0C-83-63.7-83-63-83-62.2l0,0l0,0
			c0,0.8,0,1.6-0.1,2.3l0,0h-1v0.8l0,0c-0.4,0.7-0.9,1-1.5,1l0,0l0,0c-0.3,0-0.6-0.1-1-0.3l0,0l0,0C-87-58.6-87.3-58.8-87.5-59z
			 M-74.4-108.1L-74.4-108.1L-74.4-108.1c-0.7,0.4-1.4,1-2,1.7l0,0l0,0c-0.6,0.7-1.2,1.3-1.8,2l0,0l0,0c0.4-0.3,0.7-0.5,1-0.8l0,0
			l0,0c0.3-0.3,0.6-0.6,0.9-0.9l0,0l0,0c0.3-0.3,0.7-0.6,1-0.9l0,0l0,0c0.4-0.3,0.8-0.6,1.3-0.8l0,0l0,0c0.1,0.2,0.2,0.3,0.3,0.5
			l0,0l0,0c0.1,0.1,0.2,0.3,0.2,0.4l0,0l-1.5,1.5l0,0c0-0.1-0.1-0.2-0.2-0.3l0,0l0,0c-0.2-0.1-0.3-0.1-0.4-0.1l0,0l0,0
			c-0.1,0.4-0.3,0.8-0.6,1l0,0l0,0c-0.3,0.3-0.6,0.5-0.9,0.7l0,0l0,0c-0.3,0.2-0.6,0.4-0.9,0.7l0,0l0,0c-0.3,0.3-0.5,0.6-0.6,1l0,0
			v0.1l0,0c0,0,0.1,0.1,0.2,0.1l0,0l3.2-3l-1.2,1.2l0,0c-0.6,0.6-1.2,1.2-1.9,1.8l0,0l0,0c-0.7,0.6-1.3,1.2-1.9,1.6l0,0l0,0
			c-0.6,0.5-0.9,0.7-1.1,0.7l0,0l-0.1-0.1l0,0c-0.3-0.1-0.6-0.1-0.9-0.1l0,0l0,0c-0.3,0-0.7,0-1-0.1l0,0l0,0c0-0.3-0.1-0.7-0.2-1.1
			l0,0l0,0c-0.1-0.4-0.2-0.7-0.2-0.9l0,0l0,0c0-0.2,0.1-0.3,0.3-0.3l0,0l0,0c0-0.1-0.1-0.3-0.2-0.6l0,0l0,0c-0.1-0.3-0.3-0.6-0.5-1
			l0,0l0,0c-0.2-0.4-0.3-0.7-0.5-1.2l0,0l0,0c-0.1-0.4-0.2-0.8-0.2-1.3l0,0l0,0c0-0.4,0.2-0.8,0.5-1.3l0,0l0,0
			c0.4-0.4,0.8-0.8,1.3-1.1l0,0l0,0c0.5-0.3,1-0.6,1.4-0.8l0,0l0,0c0.5-0.2,0.8-0.4,1-0.5l0,0l0,0c0.2,0,0.2-0.1,0.2-0.3l0,0l0,0
			c0-0.2,0-0.3,0.2-0.3l0,0l1.2,0.4l0,0c-0.1,0.2-0.4,0.6-0.8,1l0,0l0,0c-0.4,0.5-0.8,0.8-1,1.1l0,0l0,0c0.3-0.2,0.7-0.5,1.1-1l0,0
			l0,0c0.4-0.4,0.7-0.7,0.9-1l0,0l0,0c0.2,0.1,0.4,0.2,0.6,0.3l0,0l0,0c0.2,0.1,0.3,0.1,0.4,0.1l0,0l0.2-0.2l0,0
			c0.3,0,0.6,0.1,1,0.2l0,0l0,0c0.4,0.1,0.7,0.3,1,0.4l0,0l0,0c0.3,0.2,0.6,0.4,0.8,0.6l0,0l0,0C-74.5-108.4-74.4-108.3-74.4-108.1z
			 M-88.5-66.2L-88.5-66.2L-88.5-66.2c0-0.5,0.1-0.9,0.1-1.4l0,0l0,0C-88.4-67.1-88.5-66.6-88.5-66.2z M-62.6-36.5l0.2-0.6l0,0
			c0.1-2.4,0.1-4.7,0.2-7.1l0,0l0,0c0-2.3,0.1-4.8,0.1-7.4l0,0l0,0c0-1.1,0-2.2-0.1-3.3l0,0l0,0c0-1.1-0.1-2.1-0.2-3.2l0,0v7l0,0
			c0,2.3,0,4.7-0.1,7l0,0l0,0c-0.1,2.3-0.2,4.6-0.5,6.9l0,0l0,0c-0.2-0.4-0.4-0.8-0.6-1.2l0,0l0,0c-0.2-0.4-0.3-0.8-0.4-1.3l0,0l0,0
			c0.1-1.1,0.1-2.2,0.2-3.2l0,0l0,0c0-1,0-2,0-3.2l0,0l0.8-0.4l0,0c-0.1-0.9-0.2-1.8-0.3-2.7l0,0l0,0c0-0.9-0.1-1.8-0.1-2.7l0,0l0,0
			c0-1,0-1.9,0-2.8l0,0l0,0c0-0.9,0-1.9,0-2.9l0,0l0,0c0-1.2,0-2.4-0.1-3.5l0,0l0,0c-0.1-1.2-0.2-2.4-0.4-3.6l0,0H-64l0,0
			c0.1,1.8,0.2,3.6,0.2,5.3l0,0l0,0c0.1,1.7,0.1,3.5,0.1,5.2l0,0l0,0c0,0.8,0,1.5-0.1,2.3l0,0l-0.1,1.7l0,0c-0.1-4.1-0.2-8.1-0.4-12
			l0,0l0,0c-0.2-4.2-0.5-8.5-0.9-12.9l0,0l0.3-5.3l0,0c-0.5,0-1-0.1-1.5-0.1l0,0h-1.5l-0.2-1.5l0,0c0-0.2,0.2-0.4,0.5-0.6l0,0l0,0
			c0.3-0.2,0.9-0.3,1.8-0.3l0,0h0.6v-0.8l0,0c-1.4-0.2-2.5-0.5-3.3-0.9l0,0l0,0c-0.8-0.4-1.2-0.9-1.2-1.3l0,0l0,0
			c0-0.4,0.4-0.8,1.2-1.1l0,0l0,0c0.8-0.3,1.8-0.6,3-0.8l0,0l0,0c1.2-0.2,2.5-0.3,4-0.4l0,0l0,0C-60-88-58.6-88-57.3-88l0,0l0,0
			c1.5,0,3.1,0,4.8,0.1l0,0l0,0c1.7,0.1,3.5,0.3,5.2,0.6l0,0l0,0c1.8,0.3,3.4,0.9,5.1,1.6l0,0l0,0c1.6,0.7,3.1,1.7,4.4,2.9l0,0l0,0
			c1.3,1.3,2.4,2.8,3.3,4.7l0,0l0,0c0.9,1.9,1.4,4.2,1.7,7l0,0l0,0c0,2.3-0.5,4.2-1.5,5.7l0,0l0,0c-1,1.5-2.2,2.7-3.6,3.6l0,0l0,0
			c-1.4,0.9-2.9,1.5-4.4,1.9l0,0l0,0c-1.5,0.4-2.8,0.6-3.8,0.8l0,0l0,0c-1,0.2-2.1,0.5-3.4,0.7l0,0l0,0c-1.3,0.3-2.4,0.4-3.3,0.4
			l0,0l0,0c-1,0-1.6-0.1-1.7-0.3l0,0l0,0c-0.2-0.2-0.3-0.5-0.3-0.8l0,0l0,0c1.9-0.1,3.8-0.2,5.8-0.5l0,0l0,0
			c1.9-0.2,3.8-0.7,5.8-1.3l0,0l0,0c-1.9,0.5-3.8,0.8-5.8,1.1l0,0l0,0c-1.9,0.2-3.8,0.4-5.8,0.5l0,0l0,0c0-0.3,0-0.5-0.1-0.8l0,0
			l0,0c0-0.3-0.2-0.4-0.4-0.4l0,0l0,0c-0.4,0-0.8,0.7-1,2l0,0l0,0c-0.2,1.4-0.4,3-0.5,4.9l0,0l0,0c-0.1,1.9-0.2,3.8-0.2,5.8l0,0l0,0
			c0,2,0,3.7,0,5l0,0l0,0c0,0.6,0,1.2,0.1,1.9l0,0l0,0c0.1,0.7,0.1,1.2,0.1,1.7l0,0l0,0c0,0.4-0.1,0.8-0.2,1.1l0,0l0,0
			c-0.1,0.3-0.5,0.4-1.1,0.4l0,0v-8.1l0,0c-0.1,1.4-0.1,2.7-0.2,4l0,0l0,0c0,1.3,0,2.7,0,4l0,0h-1.2v0.5l0,0c0,0.4,0.1,0.7,0.2,0.8
			l0,0l0,0c-0.5,0.8-1,1.2-1.6,1.2l0,0l0,0c-0.5,0-0.8-0.1-1.1-0.4l0,0l0,0C-61.9-35.7-62.2-36.1-62.6-36.5L-62.6-36.5z M-56.7-67.8
			l0.5,4h0.9l0,0c1.5,0,3.2-0.1,5.2-0.2l0,0l0,0c1.9-0.2,3.8-0.5,5.5-1l0,0l0,0c1.7-0.5,3.1-1.1,4.3-2l0,0l0,0
			c1.2-0.9,1.8-2,1.8-3.3l0,0v-0.5l0,0c0-0.4,0-0.9-0.1-1.4l0,0l0,0c-0.1-0.5-0.2-1-0.5-1.5l0,0l0,0c0,0.2,0.1,0.6,0.3,1.3l0,0l0,0
			c0.2,0.6,0.3,1.2,0.3,1.6l0,0l0,0c0,1.3-0.5,2.4-1.4,3.2l0,0l0,0c-0.9,0.8-2.1,1.5-3.5,2l0,0l0,0c-1.4,0.5-2.9,0.8-4.5,1l0,0l0,0
			c-1.6,0.2-3.2,0.3-4.7,0.3l0,0h-1.3l0,0c-0.4,0-0.9,0-1.3-0.1l0,0l0,0c0.6-0.5,1.4-0.8,2.3-1l0,0l0,0c1-0.2,2-0.3,3-0.5l0,0l0,0
			c1.1-0.1,2.1-0.3,3.1-0.4l0,0l0,0c1-0.1,1.9-0.3,2.6-0.6l0,0l0.4,0.8l0,0c1.5-0.7,2.5-1.4,3.2-2.2l0,0l0,0
			c0.6-0.7,0.9-1.7,0.9-2.9l0,0l0,0c0-2-0.5-3.7-1.6-5.2l0,0l0,0c-1.1-1.5-2.5-2.5-4.4-3l0,0l-0.2,0.4l0,0c1.6,0.6,2.9,1.6,4.1,2.9
			l0,0l0,0c1.2,1.4,1.7,3,1.7,4.9l0,0l0,0c0,1-0.2,1.8-0.7,2.4l0,0l0,0c-0.4,0.5-1.1,1-2.1,1.4l0,0l0,0c0.8-0.3,1.4-0.8,1.7-1.3l0,0
			l0,0c0.5-0.6,0.8-1.3,1-2l0,0l0,0c0-1.8-0.4-3.3-1.3-4.5l0,0l0,0c-0.9-1.2-2-2.2-3.6-3l0,0l0,0c-1.5-0.7-3.4-1.3-5.5-1.6l0,0l0,0
			c-2.2-0.3-4.5-0.5-7.1-0.5l0,0l0,0c0.3,1.8,0.5,3.8,0.6,6l0,0l0,0C-57-72-56.9-69.9-56.7-67.8L-56.7-67.8z M-62.6-80.1l-0.1,6.5
			l0,0c0.1-0.1,0.2-0.5,0.3-1.1l0,0l0,0c0.1-0.6,0.2-1.3,0.2-2.1l0,0l0,0c0.1-0.7,0.1-1.5,0.2-2.1l0,0l0,0c0.1-0.7,0.1-1.1,0.2-1.2
			l0,0L-62.6-80.1z M-42.9-67.2l-0.3,0.1L-42.9-67.2z M-20.6-36.5l0.2-0.6l0,0c0.1-2.4,0.1-4.7,0.2-7.1l0,0l0,0
			c0-2.3,0.1-4.8,0.1-7.4l0,0l0,0c0-1.1,0-2.2-0.1-3.3l0,0l0,0c0-1.1-0.1-2.1-0.2-3.2l0,0v7l0,0c0,2.3,0,4.7-0.1,7l0,0l0,0
			c-0.1,2.3-0.2,4.6-0.5,6.9l0,0l0,0c-0.2-0.4-0.4-0.8-0.6-1.2l0,0l0,0c-0.2-0.4-0.3-0.8-0.4-1.3l0,0l0,0c0.1-1.1,0.1-2.2,0.2-3.2
			l0,0l0,0c0-1,0-2,0-3.2l0,0l0.8-0.4l0,0c-0.1-0.9-0.2-1.8-0.3-2.7l0,0l0,0c0-0.9-0.1-1.8-0.1-2.7l0,0l0,0c0-1,0-1.9,0-2.8l0,0l0,0
			c0-0.9,0-1.9,0-2.9l0,0l0,0c0-1.2,0-2.4-0.1-3.5l0,0l0,0c-0.1-1.2-0.2-2.4-0.4-3.6l0,0h-0.2l0,0c0.1,1.8,0.2,3.6,0.2,5.3l0,0l0,0
			c0.1,1.7,0.1,3.5,0.1,5.2l0,0l0,0c0,0.8,0,1.5-0.1,2.3l0,0l-0.1,1.7l0,0c-0.1-4.1-0.2-8.1-0.4-12l0,0l0,0
			c-0.2-4.2-0.5-8.5-0.9-12.9l0,0l0.3-5.3l0,0c-0.5,0-1-0.1-1.5-0.1l0,0h-1.5l-0.2-1.5l0,0c0-0.2,0.2-0.4,0.4-0.6l0,0l0,0
			c0.3-0.2,0.9-0.3,1.8-0.3l0,0h0.6v-0.8l0,0c-1.4-0.2-2.5-0.5-3.3-0.9l0,0l0,0c-0.8-0.4-1.2-0.9-1.2-1.3l0,0l0,0
			c0-0.4,0.4-0.8,1.2-1.1l0,0l0,0c0.8-0.3,1.8-0.6,3-0.8l0,0l0,0c1.2-0.2,2.5-0.3,4-0.4l0,0l0,0C-18-88-16.6-88-15.2-88l0,0l0,0
			c1.5,0,3.1,0,4.8,0.1l0,0l0,0c1.7,0.1,3.5,0.3,5.2,0.6l0,0l0,0c1.7,0.3,3.4,0.9,5.1,1.6l0,0l0,0C1.6-85,3-84,4.4-82.7l0,0l0,0
			c1.3,1.3,2.4,2.8,3.3,4.7l0,0l0,0c0.9,1.9,1.4,4.2,1.7,7l0,0l0,0c0,2.3-0.5,4.2-1.5,5.7l0,0l0,0c-1,1.5-2.2,2.7-3.6,3.6l0,0l0,0
			c-1.4,0.9-2.9,1.5-4.4,1.9l0,0l0,0c-1.5,0.4-2.8,0.6-3.7,0.8l0,0l0,0c-1,0.2-2.1,0.5-3.4,0.7l0,0l0,0c-1.3,0.3-2.4,0.4-3.3,0.4
			l0,0l0,0c-1,0-1.6-0.1-1.7-0.3l0,0l0,0c-0.2-0.2-0.3-0.5-0.3-0.8l0,0l0,0c1.9-0.1,3.8-0.2,5.8-0.5l0,0l0,0
			c1.9-0.2,3.8-0.7,5.8-1.3l0,0l0,0c-1.9,0.5-3.8,0.8-5.8,1.1l0,0l0,0c-1.9,0.2-3.8,0.4-5.8,0.5l0,0l0,0c0-0.3,0-0.5-0.1-0.8l0,0
			l0,0c0-0.3-0.2-0.4-0.4-0.4l0,0l0,0c-0.4,0-0.8,0.7-1,2l0,0l0,0c-0.2,1.4-0.4,3-0.5,4.9l0,0l0,0c-0.1,1.9-0.2,3.8-0.2,5.8l0,0l0,0
			c0,2,0,3.7,0,5l0,0l0,0c0,0.6,0,1.2,0.1,1.9l0,0l0,0c0.1,0.7,0.1,1.2,0.1,1.7l0,0l0,0c0,0.4-0.1,0.8-0.2,1.1l0,0l0,0
			c-0.1,0.3-0.5,0.4-1.1,0.4l0,0v-8.1l0,0c-0.1,1.4-0.1,2.7-0.2,4l0,0l0,0c0,1.3,0,2.7,0,4l0,0h-1.2v0.5l0,0c0,0.4,0.1,0.7,0.2,0.8
			l0,0l0,0c-0.5,0.8-1,1.2-1.6,1.2l0,0l0,0c-0.5,0-0.8-0.1-1-0.4l0,0l0,0C-19.8-35.7-20.2-36.1-20.6-36.5L-20.6-36.5z M-14.6-67.8
			l0.4,4h0.9l0,0c1.5,0,3.2-0.1,5.2-0.2l0,0l0,0c1.9-0.2,3.8-0.5,5.5-1l0,0l0,0c1.7-0.5,3.1-1.1,4.3-2l0,0l0,0
			c1.2-0.9,1.8-2,1.8-3.3l0,0v-0.5l0,0c0-0.4,0-0.9-0.1-1.4l0,0l0,0c-0.1-0.5-0.2-1-0.5-1.5l0,0l0,0c0,0.2,0.1,0.6,0.3,1.3l0,0l0,0
			c0.2,0.6,0.3,1.2,0.3,1.6l0,0l0,0c0,1.3-0.5,2.4-1.4,3.2l0,0l0,0c-0.9,0.8-2.1,1.5-3.5,2l0,0l0,0c-1.4,0.5-2.9,0.8-4.5,1l0,0l0,0
			c-1.6,0.2-3.2,0.3-4.7,0.3l0,0H-12l0,0c-0.4,0-0.9,0-1.3-0.1l0,0l0,0c0.6-0.5,1.4-0.8,2.3-1l0,0l0,0c1-0.2,2-0.3,3-0.5l0,0l0,0
			c1.1-0.1,2.1-0.3,3.1-0.4l0,0l0,0c1-0.1,1.9-0.3,2.6-0.6l0,0l0.4,0.8l0,0c1.5-0.7,2.6-1.4,3.2-2.2l0,0l0,0
			c0.6-0.7,0.9-1.7,0.9-2.9l0,0l0,0c0-2-0.5-3.7-1.6-5.2l0,0l0,0c-1.1-1.5-2.6-2.5-4.4-3l0,0l-0.2,0.4l0,0c1.6,0.6,2.9,1.6,4.1,2.9
			l0,0l0,0c1.1,1.4,1.7,3,1.7,4.9l0,0l0,0c0,1-0.2,1.8-0.7,2.4l0,0l0,0c-0.4,0.5-1.1,1-2.1,1.4l0,0l0,0c0.8-0.3,1.3-0.8,1.7-1.3l0,0
			l0,0c0.5-0.6,0.8-1.3,1-2l0,0l0,0c0-1.8-0.4-3.3-1.3-4.5l0,0l0,0c-0.9-1.2-2-2.2-3.6-3l0,0l0,0c-1.5-0.7-3.4-1.3-5.5-1.6l0,0l0,0
			c-2.2-0.3-4.5-0.5-7.1-0.5l0,0l0,0c0.3,1.8,0.5,3.8,0.6,6l0,0l0,0C-15-72-14.9-69.9-14.6-67.8L-14.6-67.8z M-20.6-80.1l-0.1,6.5
			l0,0c0.1-0.1,0.2-0.5,0.3-1.1l0,0l0,0c0.1-0.6,0.2-1.3,0.2-2.1l0,0l0,0c0.1-0.7,0.1-1.5,0.2-2.1l0,0l0,0c0.1-0.7,0.1-1.1,0.2-1.2
			l0,0L-20.6-80.1z M-0.8-67.2l-0.3,0.1L-0.8-67.2z M39-54.5L39-54.5L39-54.5c-1.6,0.6-2.9,0.9-3.7,0.9l0,0l0,0
			c-0.9,0.1-1.6,0.1-2.2,0.2l0,0l0,0c-2.4,0-4.5-0.4-6.5-1.3l0,0l0,0c-1.9-0.9-3.6-2.1-4.9-3.7l0,0l0,0c-1.4-1.5-2.4-3.3-3.2-5.4
			l0,0l0,0c-0.7-2.1-1.1-4.3-1.1-6.6l0,0l0,0c0-1.4,0.1-2.8,0.4-4.3l0,0l0,0c0.3-1.5,0.6-2.9,1.2-4.3l0,0l0,0c0.5-1.4,1.2-2.8,2-4
			l0,0l0,0c0.8-1.2,1.7-2.3,2.8-3.3l0,0l0,0c-1.1,0.9-2,2-2.8,3.2l0,0l0,0c-0.8,1.2-1.5,2.6-2.1,4l0,0l0,0c-0.6,1.4-1,2.9-1.2,4.4
			l0,0l0,0c-0.3,1.5-0.4,3-0.4,4.4l0,0l0,0c0,1.8,0.3,3.7,0.9,5.7l0,0l0,0c0.6,2,1.5,3.9,2.8,5.6l0,0l0,0c1.3,1.7,2.9,3.2,5,4.3l0,0
			l0,0c2,1.2,4.5,1.7,7.4,1.7l0,0l0,0c1.4,0,2.8-0.2,4.3-0.6l0,0l0,0c-1.6,1.1-3.4,1.6-5.4,1.6l0,0l0,0c-1.6,0-3.1-0.2-4.6-0.7l0,0
			l0,0c-1.4-0.5-2.8-1.2-4-2l0,0l0,0c-1.2-0.9-2.3-1.9-3.3-3.1l0,0l0,0c-1-1.2-1.8-2.5-2.5-3.8l0,0l0.6-0.5l0,0
			c-0.7-1.4-1.3-2.9-1.6-4.3l0,0l0,0c-0.3-1.5-0.5-2.9-0.5-4.4l0,0l0,0c0-2.2,0.3-4.3,0.9-6.3l0,0l0,0c0.6-2,1.4-3.9,2.5-5.7l0,0
			l1.5-2.1l0,0c0.3-0.5,0.6-0.9,1.1-1.4l0,0l0,0c0.5-0.5,1-0.9,1.6-1.4l0,0l0,0c0.6-0.4,1.2-0.9,1.9-1.2l0,0l0,0
			c0.7-0.4,1.3-0.7,1.9-1l0,0l0,0c1.5-0.8,3.1-1.5,4.6-2.1l0,0l0,0c1.5-0.6,3.3-1.1,5.4-1.4l0,0l-0.3-0.2l0,0
			c-3.9,0.4-7.2,1.3-10,2.8l0,0l0,0c-2.7,1.5-5,3.4-6.7,5.5l0,0l0,0c-1.7,2.2-2.9,4.5-3.7,7.1l0,0l0,0c-0.8,2.6-1.2,5.1-1.2,7.6l0,0
			l0,0c0,1.3,0.1,2.7,0.4,4l0,0l0,0c0.2,1.3,0.6,2.7,1.1,4l0,0l0,0c-1.1-2.6-1.6-5.3-1.6-8.1l0,0l0,0c0-2.8,0.5-5.6,1.4-8.4l0,0l0,0
			c0.9-2.8,2.4-5.3,4.4-7.7l0,0l0,0c2.6-2.3,5.4-4.2,8.4-5.4l0,0l0,0c3-1.3,5.9-1.9,8.8-1.9l0,0l0,0c0.9,0,1.8,0.2,2.8,0.5l0,0l0,0
			c0.9,0.3,1.8,0.8,2.6,1.4l0,0l0,0c0.8,0.6,1.4,1.4,1.9,2.4l0,0l0,0c0.5,1,0.7,2.2,0.7,3.6l0,0l0,0c0,1.2-0.3,2.6-0.8,4.2l0,0l0,0
			c-0.6,1.7-1.4,3.3-2.5,4.8l0,0l0,0c-1.1,1.6-2.4,2.9-4.1,4l0,0l0,0c-1.6,1.1-3.5,1.6-5.6,1.6l0,0h-2.1l0,0c-1.6-0.3-3-0.7-4.3-1.2
			l0,0l0,0c-1.3-0.4-2.5-0.8-3.7-1.1l0,0l0,0c-0.2,0.7-0.3,1.3-0.3,2l0,0l0,0c0,0.6,0,1.2,0,1.8l0,0l0,0c0,1.2,0.1,2.4,0.4,3.6l0,0
			l0,0c0.3,1.2,0.7,2.3,1.3,3.2l0,0l0,0c0.6,1,1.4,1.8,2.3,2.5l0,0l0,0c0.9,0.7,2,1.1,3.4,1.3l0,0l0,0c0.8,0.2,1.5,0.3,2.1,0.3l0,0
			l0,0c0.6,0,1.1,0,1.5,0.1l0,0l0,0c0.4,0,0.7,0.1,0.9,0.2l0,0l0,0c0.2,0.1,0.3,0.3,0.3,0.6l0,0l0,0c-0.4,0.1-0.9,0.2-1.3,0.3l0,0
			l0,0c-0.4,0-0.9,0.1-1.4,0.1l0,0l0,0c-1.5,0-2.8-0.2-4-0.7l0,0l0,0c-1.2-0.5-2.2-1.1-3.1-1.7l0,0l0,0c1,1,2.2,1.7,3.5,2.1l0,0l0,0
			c1.4,0.4,2.7,0.6,4,0.6l0,0l0,0c0.7,0,1.5-0.1,2.2-0.2l0,0l0,0c-0.1,0.3-0.1,0.4-0.1,0.4l0,0l0,0c0,0.3,0.1,0.4,0.3,0.5l0,0l0,0
			c0.2,0,0.5-0.2,0.9-0.4l0,0l0,0c0.4-0.2,0.9-0.4,1.3-0.6l0,0l0,0c0.4-0.2,0.9-0.4,1.3-0.5l0,0l0,0c0.4-0.2,0.7-0.2,0.9-0.2l0,0
			l0,0c0.2,0,0.4,0,0.6,0.1l0,0l0,0c0.2,0.1,0.3,0.3,0.3,0.7l0,0l0,0c0,0.4-0.2,0.9-0.5,1.5l0,0l0,0C40.1-55.7,39.6-55.1,39-54.5z
			 M30.2-79.8L30.2-79.8l1.4,0.3l0,0c0.5,0.1,0.9,0.1,1.3,0.1l0,0l0,0c0.4,0,0.9-0.1,1.5-0.4l0,0l0,0c0.6-0.3,1.2-0.7,1.7-1.2l0,0
			l0,0c0.6-0.5,1.1-1.2,1.5-1.9l0,0l0,0c0.4-0.8,0.8-1.6,1-2.6l0,0l0.1-0.4l0,0c-0.6,0-1.5,0.1-2.7,0.4l0,0l0,0
			c-1.2,0.3-2.4,0.7-3.7,1.2l0,0l0,0c-1.3,0.5-2.5,1.1-3.6,1.7l0,0l0,0c-1.1,0.7-1.9,1.4-2.3,2.1l0,0l0,0c0.6,0.1,1.3,0.2,1.9,0.4
			l0,0l0,0C29-80,29.6-79.9,30.2-79.8z M24.1-76.1l3.1,1l0,0c0.1-0.1,0.1-0.2,0.2-0.4l0,0l0,0c0-0.2,0-0.3,0-0.4l0,0l-3-1.1
			L24.1-76.1z M25.5-60.6L25.5-60.6L25.5-60.6c-0.3-0.3-0.6-0.7-0.9-1l0,0l0,0c-0.3-0.3-0.5-0.6-0.6-0.9l0,0l0,0
			C24.3-61.8,24.8-61.1,25.5-60.6z M65.1-55.6l-1.6,0.6l0,0c-0.4,0.1-0.9,0.1-1.4,0.1l0,0h-1.8l0,0c-1.1,0-1.9,0.1-2.3,0.4l0,0l0,0
			c-0.4,0.3-0.7,0.4-0.8,0.4l0,0l-0.3-1.1v-1.2l-0.3-6l0,0c-0.1-1.2-0.3-2.4-0.7-3.7l0,0l0,0c-0.4-1.3-0.7-2.7-0.9-4l0,0l0,0
			c-0.1-0.9-0.2-1.8-0.3-2.6l0,0l-0.3-2.5l0,0c-0.1-0.9-0.2-1.7-0.3-2.6l0,0l0,0c-0.1-0.9-0.3-1.9-0.5-2.9l0,0l0,0
			c0-0.3,0-0.5,0-0.8l0,0l0,0c0-0.3,0-0.5,0-0.8l0,0l0,0c0-1.3-0.1-2.6-0.3-3.9l0,0l0,0c-0.2-1.3-0.5-2.5-0.9-3.8l0,0l0,0
			c0.3-0.1,0.6-0.2,0.8-0.3l0,0l0,0c0.3-0.1,0.5-0.2,0.7-0.2l0,0l0,0c0.2,0,0.4,0.2,0.7,0.7l0,0l0,0c0.3,0.5,0.5,1.5,0.8,3l0,0l0,0
			c0.1,0,0.2,0,0.4-0.1l0,0l0,0c0.2-0.1,0.3-0.1,0.4-0.1l0,0l0,0c0-0.7-0.1-1.5-0.3-2.3l0,0l0,0c-0.2-0.8-0.3-1.6-0.5-2.4l0,0l0,0
			c-0.2-0.8-0.3-1.5-0.5-2.1l0,0l0,0c-0.2-0.6-0.2-1.1-0.2-1.5l0,0l0,0c0-0.1,0-0.2,0-0.3l0,0l0,0c0-0.1,0.1-0.2,0.3-0.2l0,0l0,0
			c0.2,0,0.5,0.2,0.8,0.7l0,0l0,0c0.3,0.5,0.7,1.1,1.1,1.8l0,0l0,0c0.4,0.7,0.8,1.5,1.1,2.3l0,0l0,0c0.4,0.8,0.7,1.6,1,2.3l0,0l0,0
			c1.1-2.2,2.5-3.8,3.9-5l0,0l0,0c1.5-1.1,3.4-1.7,5.8-1.7l0,0l0,0c1.8,0,3.2,0.2,4.3,0.6l0,0l0,0c1.1,0.4,2,0.9,2.6,1.3l0,0l0,0
			c0.6,0.5,1,1,1.3,1.4l0,0l0.4,0.6l0,0c0,0.3-0.1,0.4-0.4,0.5l0,0l0,0c-1.1-1.1-2.4-1.9-3.8-2.4l0,0l0,0c-1.4-0.6-2.9-0.8-4.4-0.8
			l0,0l0,0c-1.4,0-2.5,0.2-3.3,0.6l0,0l0,0c-0.7,0.3-1.4,0.8-2.2,1.3l0,0l0,0c0.8-0.5,1.6-0.9,2.2-1.2l0,0l0,0
			c0.7-0.3,1.8-0.5,3.1-0.5l0,0l0,0c1.5,0,2.9,0.3,4.3,0.9l0,0l0,0c1.4,0.6,2.5,1.3,3.5,2.2l0,0l0,0c-0.2,0.1-0.4,0.2-0.6,0.3l0,0
			l0,0c-0.1,0.1-0.2,0.3-0.2,0.5l0,0l0,0c0.2,0,0.4,0.1,0.7,0.4l0,0l0,0c0.3,0.3,0.5,0.6,0.7,1l0,0l0,0c0.2,0.4,0.4,0.8,0.5,1.2l0,0
			l0,0c0.2,0.4,0.2,0.7,0.2,1l0,0l0,0c0,0.7-0.3,1.1-0.8,1.1l0,0l0,0c-0.4,0-0.9-0.2-1.5-0.4l0,0l0,0c-0.1,0-0.4-0.3-0.8-0.7l0,0
			l0,0c-0.4-0.4-0.9-0.9-1.5-1.3l0,0l0,0c-0.6-0.4-1.3-0.9-2-1.3l0,0l0,0c-0.8-0.4-1.6-0.6-2.6-0.6l0,0l0,0c-0.8,0-1.4,0.2-2,0.5
			l0,0l0,0c-0.6,0.3-1.1,0.7-1.6,1.3l0,0l0,0c-0.5,0.5-0.9,1.1-1.3,1.8l0,0L63-84.4l0,0c0.6-1.1,1.3-2.2,2.1-3.1l0,0l0,0
			c0.9-1.1,1.9-1.7,3.2-1.7l0,0l0,0c1.1,0,2.1,0.2,3.1,0.7l0,0l0,0c0.9,0.5,1.7,1.1,2.3,1.8l0,0l0,0c-0.7-0.3-1.6-0.6-2.6-0.9l0,0
			l0,0c-1-0.3-1.9-0.4-2.8-0.4l0,0l0,0c-0.5,0-0.9,0.1-1.2,0.3l0,0l0,0c-0.3,0.2-0.6,0.5-0.9,0.8l0,0l0,0c-0.2,0.3-0.4,0.7-0.6,1.1
			l0,0l0,0c-0.2,0.4-0.4,0.7-0.6,1.1l0,0l-0.8,0.1l0,0c-0.7,1.2-1.3,2.7-1.8,4.3l0,0l0,0c-0.4,1.6-0.7,3.4-0.7,5.2l0,0l0,0
			c0,1.1,0.1,2,0.2,2.9l0,0l0,0c0.1,0.9,0.3,1.7,0.5,2.6l0,0l0.8,2L63-69.5l0,0c-0.1-1.5-0.2-2.7-0.3-3.9l0,0l0,0
			c-0.1-1.1-0.1-2.4-0.1-3.7l0,0l0,0c0.1-1.2,0.2-2.4,0.5-3.5l0,0l0,0c0.2-0.9,0.5-1.8,1-2.6l0,0l0,0c-0.5,1-0.9,2.2-1,3.5l0,0l0,0
			c-0.2,1.4-0.3,3-0.3,4.6l0,0l0,0c0,1.3,0.1,2.5,0.2,3.7l0,0l0,0c0.1,1.2,0.3,2.3,0.5,3.5l0,0l0,0c0.2,1.2,0.4,2.3,0.6,3.5l0,0l0,0
			c0.2,1.2,0.4,2.5,0.5,4l0,0l0.2,1.2L65.1-55.6z M64.1-83.2l0.2-0.3L64.1-83.2z"/>
	</g>
</g>
</svg>
